PathFileType	4	(X/Y/Z)	Gait_media_markers.trc
DataRate	CameraRate	NumFrames	NumMarkers	Units	OrigDataRate	OrigDataStartFrame	OrigNumFrames
100	100	8	38	m	100	82	93
Frame#	Time	RASI			RPSI			LPSI			LASI			RTROCH			RTHI			RTHI2			RTHI3			RTHI4			RKNE			RKNEM			RTIB			RTIB2			RTIB3			RTIB4			RANK			RANKM			RHEE			RTOE			RTOEL			RTOEM			LTROCH			LTHI			LTHI2			LTHI3			LTHI4			LKNE			LKNEM			LTIB			LTIB2			LTIB3			LTIB4			LANK			LANKM			LHEE			LTOE			LTOEL			LTOEM
		X1	Y1	Z1	X2	Y2	Z2	X3	Y3	Z3	X4	Y4	Z4	X5	Y5	Z5	X6	Y6	Z6	X7	Y7	Z7	X8	Y8	Z8	X9	Y9	Z9	X10	Y10	Z10	X11	Y11	Z11	X12	Y12	Z12	X13	Y13	Z13	X14	Y14	Z14	X15	Y15	Z15	X16	Y16	Z16	X17	Y17	Z17	X18	Y18	Z18	X19	Y19	Z19	X20	Y20	Z20	X21	Y21	Z21	X22	Y22	Z22	X23	Y23	Z23	X24	Y24	Z24	X25	Y25	Z25	X26	Y26	Z26	X27	Y27	Z27	X28	Y28	Z28	X29	Y29	Z29	X30	Y30	Z30	X31	Y31	Z31	X32	Y32	Z32	X33	Y33	Z33	X34	Y34	Z34	X35	Y35	Z35	X36	Y36	Z36	X37	Y37	Z37	X38	Y38	Z38

82	0.810000	-0.327625	0.946344	0.177456	-0.277855	0.989466	-0.005630	-0.181766	0.979728	-0.002448	-0.100896	0.940844	0.174552	-0.397400	0.872787	0.129212	-0.400756	0.751648	0.168023	-0.369144	0.774329	0.224490	-0.354011	0.700374	0.258389	-0.382461	0.672653	0.207512	-0.332899	0.541520	0.263148	-0.233800	0.537717	0.214445	-0.368515	0.406481	0.265029	-0.320630	0.409925	0.311592	-0.320896	0.322618	0.323235	-0.369293	0.324335	0.277372	-0.332687	0.100822	0.282299	-0.251931	0.112281	0.297327	-0.302234	0.050293	0.228015	-0.277056	0.080476	0.457955	-0.342276	0.045389	0.425076	-0.230497	0.047840	0.433952	-0.056569	0.878525	0.086476	-0.066940	0.669387	0.068469	-0.083197	0.657414	0.126872	-0.096575	0.578477	0.104224	-0.080978	0.586564	0.043060	-0.098304	0.500889	0.035396	-0.208284	0.521934	0.042615	-0.080765	0.339094	-0.124137	-0.106476	0.309084	-0.074482	-0.116441	0.247532	-0.136479	-0.091271	0.279521	-0.181122	-0.113383	0.174854	-0.265113	-0.193285	0.182688	-0.236965	-0.154145	0.172622	-0.344174	-0.168798	0.050258	-0.160236	-0.110090	0.050278	-0.196284	-0.215937	0.055379	-0.182260
83	0.820000	-0.328323	0.948148	0.189792	-0.279238	0.991291	0.006591	-0.182868	0.981401	0.008956	-0.101483	0.942571	0.185393	-0.397917	0.874341	0.140639	-0.401343	0.752658	0.179093	-0.370475	0.775786	0.235558	-0.355064	0.701217	0.269701	-0.382738	0.673241	0.219354	-0.334281	0.541299	0.271806	-0.232733	0.538859	0.229073	-0.368960	0.406590	0.271345	-0.321479	0.409368	0.318900	-0.321478	0.321751	0.328962	-0.369471	0.324066	0.282248	-0.332522	0.100735	0.283935	-0.251640	0.111901	0.299124	-0.302368	0.050791	0.228542	-0.276479	0.077219	0.459643	-0.342040	0.042931	0.426008	-0.229992	0.044812	0.434664	-0.057540	0.879564	0.097288	-0.067465	0.668731	0.083494	-0.082066	0.658018	0.142644	-0.095151	0.577849	0.122395	-0.080768	0.584878	0.060568	-0.097019	0.499492	0.055312	-0.206384	0.518360	0.066086	-0.080051	0.340701	-0.106105	-0.106195	0.309924	-0.058323	-0.119312	0.246071	-0.124042	-0.091110	0.283082	-0.165049	-0.113275	0.183133	-0.253593	-0.192736	0.189655	-0.224450	-0.154674	0.186373	-0.332109	-0.167937	0.052968	-0.154660	-0.110088	0.053660	-0.192923	-0.215517	0.058997	-0.176784
84	0.830000	-0.329202	0.949882	0.202107	-0.280709	0.993285	0.018409	-0.184596	0.983157	0.019895	-0.102577	0.944403	0.196069	-0.398574	0.875827	0.151784	-0.402160	0.753296	0.188828	-0.372638	0.776045	0.246067	-0.352716	0.706666	0.286115	-0.383169	0.673849	0.228451	-0.336686	0.540389	0.278911	-0.231701	0.541223	0.242620	-0.368835	0.406152	0.277605	-0.322162	0.408593	0.325852	-0.322111	0.320969	0.334471	-0.369554	0.323722	0.286865	-0.332135	0.100662	0.285599	-0.253101	0.110149	0.300321	-0.302262	0.051191	0.229052	-0.276269	0.074199	0.460965	-0.341947	0.041032	0.426910	-0.230042	0.041245	0.436590	-0.058410	0.880639	0.108199	-0.067614	0.668108	0.099208	-0.080622	0.658327	0.158419	-0.092886	0.577780	0.140028	-0.080519	0.583632	0.078524	-0.096117	0.498264	0.075686	-0.204740	0.515333	0.090481	-0.080178	0.343129	-0.087935	-0.108967	0.308051	-0.043010	-0.119183	0.249717	-0.109302	-0.091001	0.287963	-0.149019	-0.113108	0.192282	-0.241573	-0.192125	0.197188	-0.210578	-0.155603	0.200688	-0.318485	-0.166377	0.055700	-0.148580	-0.109344	0.057650	-0.188637	-0.214189	0.064292	-0.169299
85	0.840000	-0.330008	0.951291	0.214200	-0.282051	0.994826	0.030534	-0.186073	0.984664	0.031005	-0.102997	0.946280	0.206676	-0.399005	0.877322	0.163067	-0.402563	0.753267	0.197390	-0.375316	0.775439	0.255797	-0.359707	0.699878	0.288301	-0.383800	0.673384	0.235851	-0.339016	0.539372	0.285408	-0.233040	0.540231	0.251248	-0.368915	0.405849	0.283464	-0.322919	0.407536	0.332385	-0.322682	0.319714	0.339309	-0.369416	0.323299	0.291234	-0.331933	0.100680	0.286809	-0.251014	0.110891	0.302013	-0.302308	0.051414	0.229335	-0.275302	0.072000	0.462322	-0.341867	0.040304	0.427586	-0.229774	0.038422	0.437584	-0.059305	0.881908	0.118926	-0.067982	0.667929	0.114970	-0.079594	0.659398	0.175035	-0.091698	0.578335	0.159357	-0.080097	0.583228	0.096385	-0.095624	0.497627	0.096742	-0.203959	0.513394	0.114611	-0.080190	0.346923	-0.069623	-0.108374	0.310567	-0.025637	-0.118848	0.253980	-0.093799	-0.091280	0.293638	-0.132406	-0.113467	0.201979	-0.228769	-0.191435	0.204780	-0.195053	-0.156831	0.215372	-0.303305	-0.163816	0.059110	-0.140741	-0.108253	0.062732	-0.183572	-0.212267	0.070354	-0.159720
86	0.850000	-0.330583	0.952022	0.226400	-0.283726	0.996417	0.042261	-0.187643	0.986149	0.042032	-0.103753	0.948087	0.217060	-0.399649	0.878369	0.174316	-0.402662	0.753060	0.205620	-0.377811	0.774146	0.265487	-0.362582	0.698018	0.296821	-0.384001	0.672516	0.242526	-0.340161	0.538236	0.292292	-0.233664	0.540338	0.258541	-0.369107	0.405550	0.289414	-0.323158	0.406410	0.338733	-0.322741	0.318399	0.344064	-0.369357	0.322842	0.295170	-0.331974	0.100962	0.287527	-0.251356	0.110091	0.302841	-0.302300	0.051593	0.229490	-0.274938	0.070614	0.463210	-0.341664	0.040030	0.428003	-0.228581	0.038699	0.436799	-0.060121	0.883218	0.129754	-0.068203	0.668053	0.131236	-0.078911	0.661162	0.192178	-0.089915	0.580031	0.178180	-0.079846	0.582819	0.114820	-0.094802	0.496943	0.118159	-0.203479	0.512654	0.138106	-0.080408	0.351743	-0.051434	-0.107454	0.313525	-0.008093	-0.117158	0.260895	-0.076530	-0.091646	0.300285	-0.115437	-0.113809	0.212076	-0.214759	-0.190432	0.212713	-0.178856	-0.158702	0.229549	-0.286444	-0.160615	0.063463	-0.130558	-0.106850	0.069333	-0.176918	-0.210018	0.077216	-0.148403
87	0.860000	-0.331327	0.953083	0.238372	-0.285283	0.998128	0.053763	-0.189044	0.987473	0.053010	-0.104517	0.949826	0.227602	-0.400254	0.879233	0.185810	-0.403078	0.753332	0.214540	-0.379362	0.773380	0.275023	-0.363939	0.696455	0.304944	-0.387021	0.674531	0.245431	-0.340075	0.538064	0.300438	-0.234052	0.541378	0.264444	-0.369213	0.405372	0.295621	-0.323115	0.405523	0.344605	-0.322688	0.317511	0.348569	-0.369091	0.322587	0.299978	-0.331875	0.101116	0.288368	-0.252361	0.109575	0.302936	-0.302306	0.051790	0.229625	-0.274748	0.069387	0.463916	-0.341656	0.039631	0.428425	-0.228113	0.037141	0.437709	-0.060902	0.884672	0.140685	-0.068593	0.669021	0.147484	-0.078709	0.662444	0.208909	-0.089334	0.581109	0.196731	-0.079698	0.582674	0.133481	-0.093985	0.497093	0.139950	-0.202995	0.512800	0.160590	-0.080305	0.356895	-0.032547	-0.105774	0.317685	0.010506	-0.117285	0.264477	-0.061146	-0.092313	0.307513	-0.098004	-0.114606	0.221338	-0.199135	-0.190576	0.220167	-0.161895	-0.161717	0.240441	-0.269464	-0.156675	0.067228	-0.117019	-0.105397	0.076316	-0.166274	-0.207532	0.081911	-0.134413
88	0.870000	-0.332050	0.954134	0.250354	-0.286895	0.999601	0.065495	-0.190859	0.988898	0.063723	-0.105268	0.951718	0.237970	-0.401046	0.879880	0.197456	-0.403908	0.754691	0.224170	-0.379729	0.773851	0.285020	-0.363846	0.696325	0.313493	-0.387274	0.675290	0.253717	-0.339283	0.538739	0.309223	-0.234710	0.542366	0.270002	-0.369548	0.405479	0.301659	-0.323017	0.404716	0.350229	-0.322161	0.317822	0.353800	-0.369814	0.322800	0.304697	-0.332006	0.101239	0.289131	-0.252525	0.109881	0.303413	-0.302521	0.052066	0.229722	-0.274686	0.068410	0.464676	-0.341545	0.039381	0.428752	-0.227712	0.036357	0.438167	-0.061345	0.885810	0.151456	-0.068608	0.669766	0.164313	-0.078235	0.664766	0.225693	-0.087865	0.583338	0.215470	-0.078894	0.583560	0.152083	-0.092901	0.498380	0.161595	-0.201863	0.513909	0.182872	-0.080505	0.362210	-0.013073	-0.103549	0.321728	0.029445	-0.115005	0.272100	-0.042398	-0.092727	0.315054	-0.080084	-0.115580	0.230128	-0.182833	-0.191172	0.226421	-0.143994	-0.165476	0.249339	-0.251772	-0.152993	0.073856	-0.103076	-0.103251	0.084844	-0.153065	-0.204556	0.087433	-0.118678
89	0.880000	-0.332939	0.956010	0.263108	-0.288676	1.001135	0.077068	-0.192357	0.990397	0.074428	-0.106001	0.953606	0.248217	-0.401756	0.880936	0.209302	-0.404224	0.756473	0.235017	-0.379108	0.775471	0.295633	-0.362785	0.698225	0.323233	-0.384846	0.674541	0.268264	-0.338564	0.539440	0.317512	-0.235777	0.543291	0.273849	-0.369883	0.405766	0.307683	-0.322827	0.404497	0.355714	-0.322213	0.316792	0.357347	-0.370159	0.323012	0.309447	-0.332160	0.101309	0.289952	-0.253220	0.109959	0.303680	-0.303285	0.053062	0.229569	-0.274391	0.067568	0.465167	-0.341449	0.039171	0.429011	-0.227445	0.035722	0.438500	-0.062321	0.887209	0.162406	-0.068356	0.671210	0.180983	-0.077560	0.668345	0.243439	-0.087028	0.585923	0.234762	-0.078580	0.585081	0.169355	-0.091682	0.499512	0.183148	-0.201044	0.515249	0.204383	-0.080469	0.367873	0.006572	-0.101479	0.325167	0.048642	-0.114780	0.275771	-0.024781	-0.093106	0.321568	-0.060885	-0.117548	0.237174	-0.164208	-0.191535	0.232416	-0.124502	-0.168113	0.257470	-0.232357	-0.149077	0.079336	-0.085917	-0.100933	0.092552	-0.137131	-0.201444	0.092660	-0.100745
